<svg width="937" height="170" viewBox="0 0 937 170" fill="none" xmlns="http://www.w3.org/2000/svg">
<rect y="18" width="408.945" height="137" fill="#E31F42"/>
<path d="M15.1362 131V40H38.0737C46.3654 40 52.5737 42.375 56.6987 47.125C60.8237 51.875 62.8862 58.0833 62.8862 65.75C62.8862 73.4583 60.8237 79.7292 56.6987 84.5625C52.5737 89.3958 46.3654 91.8125 38.0737 91.8125H22.0737V131H15.1362ZM22.0737 85.75H38.0737C44.6987 85.75 49.3237 83.8958 51.9487 80.1875C54.6154 76.4375 55.9487 71.6458 55.9487 65.8125C55.9487 59.9792 54.6154 55.2708 51.9487 51.6875C49.3237 48.1042 44.6987 46.2917 38.0737 46.25H22.0737V85.75ZM58.4487 131L36.5737 88.8125L44.0112 88.3125L66.3237 131H58.4487ZM68.6112 131V40H114.111V46.25H75.5487V80.9375H107.986V87.125H75.5487V124.75H114.736V131H68.6112ZM118.024 106.812V102.5H124.961V106.812C124.961 113.312 126.69 118.167 130.149 121.375C133.649 124.542 138.503 126.125 144.711 126.125C151.003 126.125 155.795 124.542 159.086 121.375C162.42 118.167 164.086 113.938 164.086 108.688C164.086 103.688 162.67 99.7708 159.836 96.9375C157.045 94.0625 151.628 91.0625 143.586 87.9375C135.628 84.8542 129.649 81.5833 125.649 78.125C121.69 74.625 119.711 69.125 119.711 61.625C119.711 54.9583 121.878 49.4792 126.211 45.1875C130.545 40.8958 136.628 38.75 144.461 38.75C152.045 38.75 158.086 40.875 162.586 45.125C167.128 49.3333 169.399 55.3542 169.399 63.1875V66.3125H162.461V63.1875C162.461 57.5208 160.92 53.0625 157.836 49.8125C154.795 46.5625 150.336 44.9375 144.461 44.9375C138.211 44.9375 133.67 46.4167 130.836 49.375C128.003 52.2917 126.586 56.3125 126.586 61.4375C126.586 66.2292 128.003 70.0208 130.836 72.8125C133.67 75.5625 139.107 78.5 147.149 81.625C155.232 84.7083 161.232 88.2917 165.149 92.375C169.065 96.4167 171.024 101.792 171.024 108.5C171.024 115.625 168.649 121.375 163.899 125.75C159.19 130.083 152.795 132.25 144.711 132.25C136.628 132.25 130.149 130.104 125.274 125.812C120.44 121.521 118.024 115.188 118.024 106.812ZM177.811 131V40H223.311V46.25H184.749V80.9375H217.186V87.125H184.749V124.75H223.936V131H177.811ZM228.036 131V40H250.974C259.265 40 265.474 42.375 269.599 47.125C273.724 51.875 275.786 58.0833 275.786 65.75C275.786 73.4583 273.724 79.7292 269.599 84.5625C265.474 89.3958 259.265 91.8125 250.974 91.8125H234.974V131H228.036ZM234.974 85.75H250.974C257.599 85.75 262.224 83.8958 264.849 80.1875C267.515 76.4375 268.849 71.6458 268.849 65.8125C268.849 59.9792 267.515 55.2708 264.849 51.6875C262.224 48.1042 257.599 46.2917 250.974 46.25H234.974V85.75ZM271.349 131L249.474 88.8125L256.911 88.3125L279.224 131H271.349ZM274.699 40H281.886L304.761 117.5C305.095 118.667 305.449 119.896 305.824 121.188C306.199 122.479 306.47 123.5 306.636 124.25H306.949C307.074 123.5 307.324 122.417 307.699 121C308.115 119.542 308.449 118.375 308.699 117.5L331.761 40H338.699L311.074 131.438H302.324L274.699 40ZM328.424 131L355.986 40H365.549L393.049 131H385.924L363.049 55.125C362.549 53.4167 362.111 51.9375 361.736 50.6875C361.403 49.3958 361.007 47.9792 360.549 46.4375H360.361C359.903 47.9792 359.486 49.3958 359.111 50.6875C358.736 51.9375 358.299 53.4167 357.799 55.125L335.236 131H328.424ZM339.549 104.938L341.236 99.125H379.986L381.799 104.938H339.549Z" fill="white"/>
<path d="M441.749 59.3125V95.1875H459.686C462.145 95.1875 464.457 94.7292 466.624 93.8125C468.79 92.8542 470.686 91.5625 472.311 89.9375C473.936 88.3125 475.207 86.4167 476.124 84.25C477.082 82.0417 477.561 79.7083 477.561 77.25C477.561 74.7917 477.082 72.4792 476.124 70.3125C475.207 68.1042 473.936 66.1875 472.311 64.5625C470.686 62.9375 468.79 61.6667 466.624 60.75C464.457 59.7917 462.145 59.3125 459.686 59.3125H441.749ZM441.749 131H423.811V41.375H459.686C462.978 41.375 466.145 41.8125 469.186 42.6875C472.228 43.5208 475.061 44.7292 477.686 46.3125C480.353 47.8542 482.77 49.7292 484.936 51.9375C487.145 54.1042 489.02 56.5208 490.561 59.1875C492.145 61.8542 493.353 64.7083 494.186 67.75C495.061 70.7917 495.499 73.9583 495.499 77.25C495.499 80.3333 495.103 83.3333 494.311 86.25C493.561 89.1667 492.457 91.9375 490.999 94.5625C489.582 97.1875 487.832 99.6042 485.749 101.812C483.665 104.021 481.332 105.938 478.749 107.562L488.686 131H469.624L461.811 112.938L441.749 113.062V131ZM560.061 95.1875V77.25C560.061 74.7917 559.582 72.4792 558.624 70.3125C557.707 68.1042 556.436 66.1875 554.811 64.5625C553.186 62.9375 551.27 61.6667 549.061 60.75C546.895 59.7917 544.582 59.3125 542.124 59.3125C539.665 59.3125 537.332 59.7917 535.124 60.75C532.957 61.6667 531.061 62.9375 529.436 64.5625C527.811 66.1875 526.52 68.1042 525.561 70.3125C524.645 72.4792 524.186 74.7917 524.186 77.25V95.1875H560.061ZM577.999 131H560.061V113.062H524.186V131H506.311V77.25C506.311 72.2917 507.249 67.6458 509.124 63.3125C510.999 58.9375 513.54 55.125 516.749 51.875C519.999 48.625 523.79 46.0625 528.124 44.1875C532.499 42.3125 537.165 41.375 542.124 41.375C547.082 41.375 551.728 42.3125 556.061 44.1875C560.436 46.0625 564.249 48.625 567.499 51.875C570.749 55.125 573.311 58.9375 575.186 63.3125C577.061 67.6458 577.999 72.2917 577.999 77.25V131ZM542.311 36.125L535.249 26.8125L553.811 9.5L564.061 22.5625L542.311 36.125ZM611.499 59.3125V95.1875H629.436C631.895 95.1875 634.207 94.7292 636.374 93.8125C638.54 92.8542 640.436 91.5625 642.061 89.9375C643.686 88.3125 644.957 86.4167 645.874 84.25C646.832 82.0417 647.311 79.7083 647.311 77.25C647.311 74.7917 646.832 72.4792 645.874 70.3125C644.957 68.1042 643.686 66.1875 642.061 64.5625C640.436 62.9375 638.54 61.6667 636.374 60.75C634.207 59.7917 631.895 59.3125 629.436 59.3125H611.499ZM611.499 131H593.561V41.375H629.436C632.728 41.375 635.895 41.8125 638.936 42.6875C641.978 43.5208 644.811 44.7292 647.436 46.3125C650.103 47.8542 652.52 49.7292 654.686 51.9375C656.895 54.1042 658.77 56.5208 660.311 59.1875C661.895 61.8542 663.103 64.7083 663.936 67.75C664.811 70.7917 665.249 73.9583 665.249 77.25C665.249 82.1667 664.311 86.8125 662.436 91.1875C660.561 95.5208 657.999 99.3125 654.749 102.562C651.499 105.812 647.686 108.375 643.311 110.25C638.978 112.125 634.353 113.062 629.436 113.062H611.499V131ZM693.749 131H675.811V41.375H693.749V131ZM782.249 86.1875C782.249 90.3125 781.707 94.2917 780.624 98.125C779.582 101.917 778.082 105.479 776.124 108.812C774.165 112.104 771.832 115.125 769.124 117.875C766.415 120.583 763.395 122.917 760.061 124.875C756.728 126.833 753.145 128.354 749.311 129.438C745.52 130.479 741.561 131 737.436 131H710.436V41.375H737.436C741.561 41.375 745.52 41.9167 749.311 43C753.145 44.0417 756.728 45.5417 760.061 47.5C763.395 49.4583 766.415 51.8125 769.124 54.5625C771.832 57.2708 774.165 60.2917 776.124 63.625C778.082 66.9167 779.582 70.4792 780.624 74.3125C781.707 78.1042 782.249 82.0625 782.249 86.1875ZM764.311 86.1875C764.311 82.4792 763.603 79 762.186 75.75C760.811 72.5 758.895 69.6667 756.436 67.25C754.02 64.7917 751.165 62.8542 747.874 61.4375C744.624 60.0208 741.145 59.3125 737.436 59.3125H728.499V113.062H737.436C741.145 113.062 744.624 112.375 747.874 111C751.165 109.583 754.02 107.667 756.436 105.25C758.895 102.792 760.811 99.9375 762.186 96.6875C763.603 93.3958 764.311 89.8958 764.311 86.1875ZM846.936 95.1875V77.25C846.936 74.7917 846.457 72.4792 845.499 70.3125C844.582 68.1042 843.311 66.1875 841.686 64.5625C840.061 62.9375 838.145 61.6667 835.936 60.75C833.77 59.7917 831.457 59.3125 828.999 59.3125C826.54 59.3125 824.207 59.7917 821.999 60.75C819.832 61.6667 817.936 62.9375 816.311 64.5625C814.686 66.1875 813.395 68.1042 812.436 70.3125C811.52 72.4792 811.061 74.7917 811.061 77.25V95.1875H846.936ZM864.874 131H846.936V113.062H811.061V131H793.186V77.25C793.186 72.2917 794.124 67.6458 795.999 63.3125C797.874 58.9375 800.415 55.125 803.624 51.875C806.874 48.625 810.665 46.0625 814.999 44.1875C819.374 42.3125 824.04 41.375 828.999 41.375C833.957 41.375 838.603 42.3125 842.936 44.1875C847.311 46.0625 851.124 48.625 854.374 51.875C857.624 55.125 860.186 58.9375 862.061 63.3125C863.936 67.6458 864.874 72.2917 864.874 77.25V131Z" fill="#E31F42"/>
<line x1="-0.00195312" y1="166.875" x2="869.587" y2="166.875" stroke="#E31F42" stroke-width="5"/>
<line y1="2.5" x2="869.584" y2="2.5" stroke="#E31F42" stroke-width="5"/>
</svg>
